<?xml version="1.0" standalone="no"?>
<!DOCTYPE svg PUBLIC "-//W3C//DTD SVG 1.1//EN"
	"http://www.w3.org/Graphics/SVG/1.1/DTD/svg11.dtd">
<svg xmlns="http://www.w3.org/2000/svg" version="1.1"
	xmlns:xlink="http://www.w3.org/1999/xlink"
	color="black"
	width="453.60px" height="152.00px">
<style type="text/css">
.fill {fill: currentColor}
.stroke {stroke: currentColor; fill: none}
text{white-space:pre; fill:currentColor}
</style>
<title>/var/folders/l9/frrb9wnn5xnd99y7x29wswh40000gn/T/babel-GZdrlW/abc-RvraXd (1) tune 1</title>
<!-- Creator: abcm2ps-8.14.15 -->
<!-- CreationDate: Sep 27, 2025 21:39 -->
<!-- CommandLine: -g -O /Users/iain/Documents/org-mode/agenda/images/monkey.svg /var/folders/l9/frrb9wnn5xnd99y7x29wswh40000gn/T/babel-GZdrlW/abc-RvraXd -->
<rect width="100%" height="100%" fill="white"/>
<g stroke-width="0.70">
<path class="stroke" stroke-width="1"
	d="M131.20 59.00v-24.00"/>
<path class="stroke" stroke-width="1"
	d="M385.40 59.00v-24.00"/>
<path d="m67.20 59.00
	h319.20
	M67.20 53.00
	h319.20
	M67.20 47.00
	h319.20
	M67.20 41.00
	h319.20
	M67.20 35.00
	h319.20
	" class="stroke"/>
<defs>
<path id="utclef" class="fill" d="m-50 -90
	c-72 -41 -72 -158 52 -188
	150 -10 220 188 90 256
	-114 52 -275 0 -293 -136
	-15 -181 93 -229 220 -334
	88 -87 79 -133 62 -210
	-51 33 -94 105 -89 186
	17 267 36 374 49 574
	6 96 -19 134 -77 135
	-80 1 -126 -93 -61 -133
	85 -41 133 101 31 105
	23 17 92 37 90 -92
	-10 -223 -39 -342 -50 -617
	0 -90 0 -162 96 -232
	56 72 63 230 22 289
	-74 106 -257 168 -255 316
	9 153 148 185 252 133
	86 -65 29 -192 -80 -176
	-71 12 -105 67 -59 124"/>
<use id="tclef" transform="translate(0,6) scale(0.045)"
	xlink:href="#utclef"/>
</defs>
<use x="79.20" y="53.00" xlink:href="#tclef"/>
<g style="font:bold 16px serif"
	transform="translate(104.20,58.50) scale(1.2,1)">
	<text text-anchor="middle">16</text>
	<text y="-12" text-anchor="middle">11</text>
</g>
<path class="fill"
	d="M141.80 61.00l45.00 0.00v-3.20l-45.00 -0.00"/>
<path class="fill"
	d="M162.60 56.00l7.00 0.00v-3.20l-7.00 -0.00"/>
<defs>
<ellipse id="hd" rx="4.1" ry="2.9"
	transform="rotate(-20)" class="fill"/>
</defs>
<use x="145.70" y="41.00" xlink:href="#hd"/>
<circle class="fill" cx="153.40" cy="38.00" r="1.2"/>
<path d="M142.20 41.00v19.00" class="stroke"/>
<use x="173.10" y="41.00" xlink:href="#hd"/>
<path d="M169.60 41.00v19.00" class="stroke"/>
<use x="190.00" y="41.00" xlink:href="#hd"/>
<path d="M186.50 41.00v19.00" class="stroke"/>
<path class="fill"
	d="M213.00 67.00l45.00 0.00v-3.20l-45.00 -0.00"/>
<path class="fill"
	d="M233.70 62.00l7.00 0.00v-3.20l-7.00 -0.00"/>
<use x="216.80" y="47.00" xlink:href="#hd"/>
<circle class="fill" cx="224.50" cy="44.00" r="1.2"/>
<defs>
<path id="uflat" class="fill" d="
	m100 -746
	h32
	v734
	l-32 4
	m32 -332
	c46 -72 152 -90 208 -20
	100 110 -120 326 -208 348
	m0 -28
	c54 0 200 -206 130 -290
	-50 -60 -130 -4 -130 34"/>
<use id="ft0" transform="translate(-3.5,3.5) scale(0.018)"
	xlink:href="#uflat"/>
</defs>
<use x="207.80" y="47.00" xlink:href="#ft0"/>
<path d="M213.30 47.00v19.00" class="stroke"/>
<use x="244.20" y="47.00" xlink:href="#hd"/>
<path d="M240.70 47.00v19.00" class="stroke"/>
<use x="261.20" y="47.00" xlink:href="#hd"/>
<path d="M257.70 47.00v19.00" class="stroke"/>
<path class="fill"
	d="M288.30 28.80l45.00 0.00v3.20l-45.00 -0.00"/>
<path class="fill"
	d="M309.00 33.80l7.00 0.00v3.20l-7.00 -0.00"/>
<use x="285.10" y="53.00" xlink:href="#hd"/>
<circle class="fill" cx="292.80" cy="50.00" r="1.2"/>
<path d="M288.60 53.00v-23.20" class="stroke"/>
<use x="312.50" y="53.00" xlink:href="#hd"/>
<path d="M316.00 53.00v-23.20" class="stroke"/>
<use x="329.50" y="53.00" xlink:href="#hd"/>
<path d="M333.00 53.00v-23.20" class="stroke"/>
<path class="fill"
	d="M352.20 67.00l17.70 0.00v-3.20l-17.70 -0.00"/>
<path class="fill"
	d="M352.60 62.00l17.00 0.00v-3.20l-17.00 -0.00"/>
<use x="356.10" y="44.00" xlink:href="#hd"/>
<path d="M352.60 44.00v22.00" class="stroke"/>
<use x="373.10" y="44.00" xlink:href="#hd"/>
<path d="M369.60 44.00v22.00" class="stroke"/>
</g>
<g stroke-width="0.70">
<path class="stroke" stroke-width="1"
	d="M98.20 129.00v-24.00"/>
<path class="stroke" stroke-width="1"
	d="M385.40 129.00v-24.00"/>
<path d="m67.20 129.00
	h319.20
	M67.20 123.00
	h319.20
	M67.20 117.00
	h319.20
	M67.20 111.00
	h319.20
	M67.20 105.00
	h319.20
	" class="stroke"/>
<use x="79.20" y="123.00" xlink:href="#tclef"/>
<path class="fill"
	d="M109.90 131.00l48.90 0.00v-3.20l-48.90 -0.00"/>
<path class="fill"
	d="M133.00 126.00l7.00 0.00v-3.20l-7.00 -0.00"/>
<use x="113.70" y="111.00" xlink:href="#hd"/>
<circle class="fill" cx="121.40" cy="108.00" r="1.2"/>
<path d="M110.20 111.00v19.00" class="stroke"/>
<use x="143.50" y="111.00" xlink:href="#hd"/>
<path d="M140.00 111.00v19.00" class="stroke"/>
<use x="162.00" y="111.00" xlink:href="#hd"/>
<path d="M158.50 111.00v19.00" class="stroke"/>
<path class="fill"
	d="M187.20 137.00l75.10 0.00v-3.20l-75.10 -0.00"/>
<path class="fill"
	d="M210.30 132.00l7.00 0.00v-3.20l-7.00 -0.00"/>
<use x="191.10" y="117.00" xlink:href="#hd"/>
<circle class="fill" cx="198.80" cy="114.00" r="1.2"/>
<use x="182.10" y="117.00" xlink:href="#ft0"/>
<path d="M187.60 117.00v19.00" class="stroke"/>
<use x="220.80" y="117.00" xlink:href="#hd"/>
<path d="M217.30 117.00v19.00" class="stroke"/>
<use x="239.30" y="117.00" xlink:href="#hd"/>
<path d="M235.80 117.00v19.00" class="stroke"/>
<use x="265.50" y="117.00" xlink:href="#hd"/>
<path d="M262.00 117.00v19.00" class="stroke"/>
<path class="fill"
	d="M294.80 98.80l75.10 0.00v3.20l-75.10 -0.00"/>
<path class="fill"
	d="M317.90 103.80l7.00 0.00v3.20l-7.00 -0.00"/>
<use x="291.60" y="123.00" xlink:href="#hd"/>
<circle class="fill" cx="299.30" cy="120.00" r="1.2"/>
<path d="M295.10 123.00v-23.20" class="stroke"/>
<use x="321.40" y="123.00" xlink:href="#hd"/>
<path d="M324.90 123.00v-23.20" class="stroke"/>
<use x="339.90" y="123.00" xlink:href="#hd"/>
<path d="M343.40 123.00v-23.20" class="stroke"/>
<use x="366.10" y="123.00" xlink:href="#hd"/>
<path d="M369.60 123.00v-23.20" class="stroke"/>
</g>
</svg>
