<?xml version="1.0" standalone="no"?>
<!DOCTYPE svg PUBLIC "-//W3C//DTD SVG 1.1//EN"
	"http://www.w3.org/Graphics/SVG/1.1/DTD/svg11.dtd">
<svg xmlns="http://www.w3.org/2000/svg" version="1.1"
	xmlns:xlink="http://www.w3.org/1999/xlink"
	color="black"
	width="453.60px" height="96.00px">
<style type="text/css">
.fill {fill: currentColor}
.stroke {stroke: currentColor; fill: none}
text{white-space:pre; fill:currentColor}
</style>
<title>/var/folders/l9/frrb9wnn5xnd99y7x29wswh40000gn/T/babel-l0FjBD/abc-OZHDyX (1) tune 1</title>
<!-- Creator: abcm2ps-8.14.15 -->
<!-- CreationDate: Sep  5, 2025 16:54 -->
<!-- CommandLine: -g -O '/Users/iain/Documents/org-mode/NotationalVelocity/abc format-images-change.svg' /var/folders/l9/frrb9wnn5xnd99y7x29wswh40000gn/T/babel-l0FjBD/abc-OZHDyX -->
<rect width="100%" height="100%" fill="white"/>
<g stroke-width="0.70" style="font:italic 14.00px Times">
<text x="748.80" y="20.00" text-anchor="end">Stranglers</text>
</g>
<g stroke-width="0.70" style="font:italic 14.00px Times">
<path class="stroke" stroke-width="1"
	d="M158.20 73.00v-24.00"/>
<path class="stroke" stroke-width="1"
	d="M214.10 73.00v-24.00"/>
<path class="stroke" stroke-width="1"
	d="M298.80 73.00v-24.00"/>
<path class="stroke" stroke-width="1"
	d="M354.60 73.00v-24.00"/>
<path class="stroke" stroke-width="1"
	d="M385.40 73.00v-24.00"/>
<path d="m67.20 73.00
	h319.20
	M67.20 67.00
	h319.20
	M67.20 61.00
	h319.20
	M67.20 55.00
	h319.20
	M67.20 49.00
	h319.20
	" class="stroke"/>
<defs>
<path id="utclef" class="fill" d="m-50 -90
	c-72 -41 -72 -158 52 -188
	150 -10 220 188 90 256
	-114 52 -275 0 -293 -136
	-15 -181 93 -229 220 -334
	88 -87 79 -133 62 -210
	-51 33 -94 105 -89 186
	17 267 36 374 49 574
	6 96 -19 134 -77 135
	-80 1 -126 -93 -61 -133
	85 -41 133 101 31 105
	23 17 92 37 90 -92
	-10 -223 -39 -342 -50 -617
	0 -90 0 -162 96 -232
	56 72 63 230 22 289
	-74 106 -257 168 -255 316
	9 153 148 185 252 133
	86 -65 29 -192 -80 -176
	-71 12 -105 67 -59 124"/>
<use id="tclef" transform="translate(0,6) scale(0.045)"
	xlink:href="#utclef"/>
</defs>
<use x="79.20" y="67.00" xlink:href="#tclef"/>
<defs>
<path id="usharp" class="fill" d="
	m136 -702
	v890
	h32
	v-890
	m128 840
	h32
	v-888
	h-32
	m-232 286
	v116
	l338 -96
	v-116
	m-338 442
	v116
	l338 -98
	v-114"/>
<use id="sh0" transform="translate(-4,5) scale(0.018)"
	xlink:href="#usharp"/>
</defs>
<use x="94.20" y="49.00" xlink:href="#sh0"/>
<use x="99.70" y="58.00" xlink:href="#sh0"/>
<use x="105.20" y="46.00" xlink:href="#sh0"/>
<use x="110.70" y="55.00" xlink:href="#sh0"/>
<use x="116.20" y="64.00" xlink:href="#sh0"/>
<use x="121.70" y="52.00" xlink:href="#sh0"/>
<g style="font:bold 16px serif"
	transform="translate(137.70,72.50) scale(1.2,1)">
	<text text-anchor="middle">4</text>
	<text y="-12" text-anchor="middle">4</text>
</g>
<defs>
<path id="Hd" class="fill" d="m3 -1.6
	c-1 -1.8 -7 1.4 -6 3.2
	1 1.8 7 -1.4 6 -3.2
	m0.5 -0.3
	c2 3.8 -5 7.6 -7 3.8
	-2 -3.8 5 -7.6 7 -3.8"/>
</defs>
<use x="172.20" y="70.00" xlink:href="#Hd"/>
<circle class="fill" cx="181.90" cy="70.00" r="1.2"/>
<path d="M175.70 70.00v-25.00" class="stroke"/>
<use x="172.20" y="64.00" xlink:href="#Hd"/>
<circle class="fill" cx="181.90" cy="64.00" r="1.2"/>
<path class="fill"
	d="M195.80 41.50l10.60 -2.00v3.20l-10.60 2.00"/>
<defs>
<ellipse id="hd" rx="4.1" ry="2.9"
	transform="rotate(-20)" class="fill"/>
</defs>
<use x="192.70" y="67.00" xlink:href="#hd"/>
<path d="M196.20 67.00v-24.60" class="stroke"/>
<use x="192.70" y="61.00" xlink:href="#hd"/>
<use x="202.60" y="64.00" xlink:href="#hd"/>
<path d="M206.10 64.00v-23.40" class="stroke"/>
<use x="202.60" y="58.00" xlink:href="#hd"/>
<use x="228.10" y="55.00" xlink:href="#Hd"/>
<circle class="fill" cx="236.80" cy="52.00" r="1.2"/>
<path d="M224.60 55.00v25.00" class="stroke"/>
<use x="228.10" y="61.00" xlink:href="#Hd"/>
<circle class="fill" cx="236.80" cy="58.00" r="1.2"/>
<path class="fill"
	d="M258.40 76.00l25.70 0.00v-3.20l-25.70 -0.00"/>
<use x="262.30" y="52.00" xlink:href="#hd"/>
<defs>
<path id="unat" class="fill" d="
	m96 -750
	h-32
	v716
	l32 -8
	182 -54
	v282
	h32
	v-706
	l-34 10
	-180 50
	v-290
	m0 592
	v-190
	l182 -52
	v188"/>
<use id="nt0" transform="translate(-3,5) scale(0.018)"
	xlink:href="#unat"/>
</defs>
<use x="253.30" y="52.00" xlink:href="#nt0"/>
<path d="M258.80 52.00v23.00" class="stroke"/>
<use x="262.30" y="58.00" xlink:href="#hd"/>
<use x="246.30" y="58.00" xlink:href="#nt0"/>
<use x="287.30" y="52.00" xlink:href="#hd"/>
<use x="278.30" y="52.00" xlink:href="#sh0"/>
<path d="M283.80 52.00v23.00" class="stroke"/>
<use x="287.30" y="58.00" xlink:href="#hd"/>
<use x="271.30" y="58.00" xlink:href="#sh0"/>
<use x="312.80" y="49.00" xlink:href="#Hd"/>
<circle class="fill" cx="321.50" cy="46.00" r="1.2"/>
<path d="M309.30 49.00v25.00" class="stroke"/>
<use x="312.80" y="55.00" xlink:href="#Hd"/>
<circle class="fill" cx="321.50" cy="52.00" r="1.2"/>
<path class="fill"
	d="M329.40 70.50l10.60 -2.00v-3.20l-10.60 2.00"/>
<use x="333.30" y="46.00" xlink:href="#hd"/>
<path d="M329.80 46.00v23.40" class="stroke"/>
<use x="333.30" y="52.00" xlink:href="#hd"/>
<defs>
<path id="hl" class="stroke" d="m-6 0h12"/>
</defs>
<use x="343.10" y="43.00" xlink:href="#hl"/>
<use x="343.10" y="43.00" xlink:href="#hd"/>
<path d="M339.60 43.00v24.60" class="stroke"/>
<use x="343.10" y="49.00" xlink:href="#hd"/>
<defs>
<path id="hl1" class="stroke" d="m-7 0h14"/>
</defs>
<use x="370.60" y="43.00" xlink:href="#hl1"/>
<defs>
<path id="HD" class="fill" d="m-2.7 -1.4
	c1.5 -2.8 6.9 0 5.3 2.7
	-1.5 2.8 -6.9 0 -5.3 -2.7
	m8.3 1.4
	c0 -1.5 -2.2 -3 -5.6 -3
	-3.4 0 -5.6 1.5 -5.6 3
	0 1.5 2.2 3 5.6 3
	3.4 0 5.6 -1.5 5.6 -3"/>
</defs>
<use x="370.60" y="40.00" xlink:href="#HD"/>
<use x="370.60" y="49.00" xlink:href="#HD"/>
</g>
</svg>
